# xmcd
#
# Track frame offsets:
#	150
#	14702
#	31352
#	48827
#	68575
#	86667
#	106307
#	128830
#	149012
#	168710
#	188892
#	205072
#	222422
#
# Disc length: 3155 seconds
#
# Revision: 2
# Processed by: cddbd v1.5.2PL0 Copyright (c) Steve Scherf et al.
# Submitted via: audiograbber 1.83.01
#
DISCID=c10c510d
DTITLE=Hoodoo Kings - The Hoodoo Kings
DYEAR=2001
DGENRE=Blues
TTITLE0=I Fought The Law
TTITLE1=Stumble And Fall
TTITLE2=Monkey Business
TTITLE3=Mean And Evil Woman
TTITLE4=If I Don't Be There By Morning
TTITLE5=I've Been Mistreated
TTITLE6=I Am The Hoodoo King
TTITLE7=Hard Times
TTITLE8=I Need Your Love So Bad
TTITLE9=Luberta
TTITLE10=Leave It Like It Is
TTITLE11=Big Chief
TTITLE12=If I Ever Get Lucky
EXTD=
EXTT0=
EXTT1=
EXTT2=
EXTT3=
EXTT4=
EXTT5=
EXTT6=
EXTT7=
EXTT8=
EXTT9=
EXTT10=
EXTT11=
EXTT12=
PLAYORDER=
